<svg width="25" height="24" viewBox="0 0 25 24" fill="none" xmlns="http://www.w3.org/2000/svg">
<path d="M21.5 18V15C21.5 14.8011 21.421 14.6103 21.2803 14.4697C21.1397 14.329 20.9489 14.25 20.75 14.25C20.5511 14.25 20.3603 14.329 20.2197 14.4697C20.079 14.6103 20 14.8011 20 15V18C20 18.1989 19.921 18.3897 19.7803 18.5303C19.6397 18.671 19.4489 18.75 19.25 18.75H5.75C5.55109 18.75 5.36032 18.671 5.21967 18.5303C5.07902 18.3897 5 18.1989 5 18V15C5 14.8011 4.92098 14.6103 4.78033 14.4697C4.63968 14.329 4.44891 14.25 4.25 14.25C4.05109 14.25 3.86032 14.329 3.71967 14.4697C3.57902 14.6103 3.5 14.8011 3.5 15V18C3.5 18.5967 3.73705 19.169 4.15901 19.591C4.58097 20.0129 5.15326 20.25 5.75 20.25H19.25C19.8467 20.25 20.419 20.0129 20.841 19.591C21.2629 19.169 21.5 18.5967 21.5 18ZM16.715 14.085L12.965 17.085C12.8326 17.1896 12.6688 17.2465 12.5 17.2465C12.3312 17.2465 12.1674 17.1896 12.035 17.085L8.285 14.085C8.14836 13.956 8.06511 13.7805 8.05173 13.593C8.03834 13.4056 8.09578 13.22 8.2127 13.0729C8.32962 12.9258 8.49749 12.828 8.68309 12.7987C8.8687 12.7695 9.05852 12.811 9.215 12.915L11.75 14.94V4.5C11.75 4.30109 11.829 4.11032 11.9697 3.96967C12.1103 3.82902 12.3011 3.75 12.5 3.75C12.6989 3.75 12.8897 3.82902 13.0303 3.96967C13.171 4.11032 13.25 4.30109 13.25 4.5V14.94L15.785 12.915C15.8605 12.8437 15.95 12.7889 16.0478 12.754C16.1457 12.7191 16.2497 12.7049 16.3533 12.7123C16.4569 12.7197 16.5578 12.7485 16.6496 12.797C16.7415 12.8454 16.8223 12.9124 16.8869 12.9937C16.9516 13.075 16.9986 13.1689 17.0251 13.2693C17.0515 13.3697 17.0568 13.4745 17.0407 13.5771C17.0245 13.6797 16.9872 13.7778 16.9312 13.8653C16.8751 13.9527 16.8015 14.0275 16.715 14.085Z" fill="white"/>
</svg>
