<svg width="109" height="70" viewBox="0 0 109 70" fill="none" xmlns="http://www.w3.org/2000/svg">
<g opacity="0.35">
<path d="M32.8944 67.8523L28.3775 67.8605C18.7545 67.878 9.52505 68.2876 9.49471 51.5946C9.46615 35.8837 18.4978 34.6889 25.9605 34.6753L32.8341 34.6628L32.8944 67.8523ZM13.7539 17.8082C13.7285 3.8647 21.7779 2.47535 28.2586 2.46357L32.7755 2.45536L32.8316 33.2881L25.958 33.3006C19.6736 33.3121 13.7806 32.5372 13.7539 17.8082ZM64.0593 34.4097L64.0571 33.2314L40.2943 33.2746L40.2554 11.8684C40.2447 5.97677 42.2021 2.43822 46.3262 2.43073L46.3241 1.25241L29.042 1.28382C15.6877 1.30809 4.8893 2.89883 4.91678 18.0206C4.94427 33.1425 18.496 33.707 20.4599 33.7034C14.1755 33.7148 0.432327 35.9001 0.461598 52.0038C0.491941 68.6967 12.4726 69.2641 29.1656 69.2338L46.4476 69.2024L46.4455 68.024C42.3213 68.0315 40.3518 64.8929 40.34 58.4121L40.2968 34.6493L64.0596 34.6061L64.0593 34.4097Z" fill="#E0E0E0"/>
<path d="M70.7329 33.2189L63.8593 33.2314L63.8033 2.39866L68.3202 2.39045C74.801 2.37867 82.8553 3.73875 82.8807 17.6822C83.1038 32.4109 77.0173 33.2075 70.7329 33.2189ZM98.668 59.6805C93.5209 37.1053 87.6247 34.563 81.1421 33.5928C80.9457 33.5932 76.2321 33.4054 76.2321 33.4054L76.4285 33.405C78.9815 33.4004 91.7449 32.3952 91.7181 17.6662C91.6906 2.54436 80.8865 0.992896 67.5321 1.01717L50.25 1.04858L50.2522 2.2269C54.5727 2.21905 56.3416 3.00139 56.3523 8.89301L56.4405 57.4006C56.4569 66.4344 54.4948 67.42 50.3707 67.4275L50.3728 68.6058L70.0116 68.5701L70.0094 67.3918C65.8853 67.3993 63.919 66.0281 63.9065 59.1545L63.8608 34.017L71.5199 34.0031C75.2512 33.9963 85.4694 37.3163 87.8446 47.5242C92.7921 68.3323 91.8106 68.5304 101.826 68.5122L108.111 68.5008L108.109 67.3225C105.949 67.5228 100.449 67.14 98.668 59.6805Z" fill="#E0E0E0"/>
</g>
</svg>
