<svg width="44" height="44" viewBox="0 0 44 44" fill="none" xmlns="http://www.w3.org/2000/svg">
<path d="M21.757 1.41982L1.81813 8.98228C1.55124 9.0844 1.37537 9.34103 1.37636 9.62681V13.063C1.37787 13.4406 1.68359 13.7463 2.06118 13.7478H5.50271V15.813C5.50408 16.1906 5.80994 16.4963 6.18752 16.4978H13.0639C13.4414 16.4963 13.7472 16.1906 13.7487 15.813V13.7478H17.875V15.813C17.8764 16.1906 18.1822 16.4963 18.5598 16.4978H25.4362C25.8164 16.5 26.1262 16.1932 26.1277 15.813V13.7478H30.2473V15.813C30.2487 16.1932 30.5587 16.5 30.9389 16.4978H37.8152C38.1928 16.4963 38.4985 16.1906 38.5 15.813V13.7478H41.9362C42.3159 13.7493 42.6248 13.4427 42.6264 13.063V9.62681C42.6265 9.33968 42.4482 9.08268 42.1792 8.98228L22.2444 1.41982C22.0632 1.35096 21.898 1.36629 21.757 1.41982ZM22.0014 2.79611L41.2514 10.0982V12.3715H2.75136V10.0982L22.0014 2.79611ZM22.0014 5.50048C20.4907 5.50048 19.25 6.74117 19.25 8.25179C19.25 9.76243 20.4907 10.9964 22.0014 10.9964C23.512 10.9964 24.7514 9.76243 24.7514 8.25179C24.7514 6.74117 23.512 5.50048 22.0014 5.50048ZM22.0014 6.8755C22.7689 6.8755 23.3764 7.48427 23.3764 8.25179C23.3764 9.01934 22.7689 9.62681 22.0014 9.62681C21.2338 9.62681 20.6264 9.01934 20.6264 8.25179C20.6264 7.48427 21.2338 6.8755 22.0014 6.8755ZM6.8777 13.7478H12.3737V15.1228H6.8777L6.8777 13.7478ZM19.25 13.7478H24.7514V15.1228H19.25L19.25 13.7478ZM31.6237 13.7478H37.125V15.1228H31.6237L31.6237 13.7478ZM19.7025 17.8634C19.3494 17.8764 19.0638 18.1552 19.0419 18.5079L17.9233 32.9965H17.1902C16.8079 32.995 16.4978 33.3057 16.5 33.688V35.7478H15.1237V33.688C15.1257 33.3078 14.8191 32.998 14.4389 32.9965H13.6976L12.5845 18.5093C12.5619 18.149 12.2646 17.8676 11.9037 17.8647C11.4975 17.8621 11.1771 18.2094 11.2135 18.614L12.32 32.9965H6.93007L8.03651 18.614C8.07405 18.2006 7.7396 17.8485 7.32484 17.8647C6.97225 17.8777 6.68735 18.157 6.66554 18.5093L5.55238 32.9965H4.81117C4.43096 32.998 4.12416 33.3078 4.12635 33.688V35.7478H3.43617C3.05649 35.7494 2.74991 36.0583 2.75135 36.438V38.4978H2.06117C1.68096 38.4993 1.37416 38.8091 1.37635 39.1893V41.9339C1.37491 42.3136 1.68149 42.6226 2.06117 42.6241H41.9362C42.3179 42.6256 42.6278 42.3157 42.6264 41.9339V39.1893C42.6284 38.807 42.3185 38.4964 41.9362 38.4978H41.2514V36.438C41.2527 36.0557 40.9421 35.7456 40.5598 35.7478H39.875V33.688C39.8771 33.3057 39.5671 32.995 39.1848 32.9965H38.4517L37.3331 18.5079C37.3105 18.1477 37.0133 17.8662 36.6524 17.8634C36.2455 17.8608 35.9249 18.2089 35.9622 18.614L37.0686 32.9965H31.6801L32.7852 18.614C32.8235 18.2007 32.4897 17.8479 32.0749 17.8634C31.7223 17.8764 31.4374 18.1557 31.4155 18.5079L30.301 32.9965H29.5625C29.1802 32.995 28.8701 33.3057 28.8723 33.688V35.7478H27.5027V33.688C27.5048 33.3057 27.1948 32.995 26.8125 32.9965H26.074L24.9595 18.5079C24.9369 18.1482 24.6405 17.8669 24.2801 17.8634C23.8732 17.8608 23.5525 18.2089 23.5899 18.614L24.695 32.9965H19.3064L20.4129 18.614C20.4512 18.2007 20.1173 17.8479 19.7025 17.8634H19.7025ZM5.5027 34.3728C8.21496 34.3284 11.0558 34.5254 13.7487 34.3728V35.7478H5.5027L5.5027 34.3728ZM17.875 34.3728C20.6193 34.3754 23.4145 34.3728 26.1277 34.3728V35.7478H17.875L17.875 34.3728ZM30.2473 34.3728C32.9792 34.391 35.7486 34.3728 38.5 34.3728V35.7478H30.2473V34.3728ZM4.12635 37.1228H39.875V38.4978H36.4402C35.5226 38.4978 35.5226 39.8741 36.4402 39.8741H41.2514V41.2491H2.75136V39.8741H33.6889C34.6064 39.8741 34.6064 38.4978 33.6889 38.4978H4.12636L4.12635 37.1228Z" fill="#192D59"/>
</svg>
