<svg width="44" height="44" viewBox="0 0 44 44" fill="none" xmlns="http://www.w3.org/2000/svg">
<path fill-rule="evenodd" clip-rule="evenodd" d="M22.0321 1.51725C22.1565 1.51194 22.2839 1.53622 22.4038 1.59539C22.598 1.69022 22.9659 1.86091 23.4757 2.08242C24.3299 2.45263 25.2638 2.82284 26.2462 3.16725C27.9508 3.76656 29.616 4.22553 31.1681 4.48877L31.2607 4.50394C33.7937 4.92118 36.0574 4.95987 37.9039 4.77704C38.2756 4.74063 38.529 4.70422 38.699 4.67539C39.9818 4.52215 41.0219 5.48332 40.9596 6.73277C40.9468 7.22215 40.9255 7.71128 40.8959 8.19994C40.822 9.47936 40.7165 10.7568 40.5796 12.031C40.157 15.9948 39.4568 19.9593 38.4145 23.6682C35.3883 34.4232 30.1205 40.9655 21.9994 40.9655C13.8776 40.9655 8.62116 34.4232 5.61551 23.6675C4.57923 19.9593 3.88661 15.994 3.47164 12.0302C3.337 10.7559 3.23379 9.47854 3.16213 8.19918C3.13385 7.71784 3.11387 7.23604 3.1022 6.75401C3.04151 5.48332 4.08233 4.52291 5.41144 4.68298C5.53433 4.70573 5.78771 4.74139 6.1602 4.7778C8.00592 4.96063 10.2704 4.92194 12.8027 4.5047L12.8952 4.48953C14.4474 4.22629 16.1133 3.76808 17.8179 3.16877C18.7536 2.83961 19.6775 2.47752 20.5876 2.08318C20.9487 1.92857 21.3063 1.76619 21.6603 1.59615C21.7794 1.53698 21.9076 1.5127 22.0321 1.51801V1.51725ZM21.9954 10.4493H24.269C24.6915 10.4493 25.0344 10.7945 25.0344 11.1927C25.0344 11.6047 24.7097 11.9377 24.2682 11.9377H10.7951C10.6843 11.9377 10.6024 12.0325 10.6199 12.2351C10.6297 12.405 10.654 12.7297 10.6965 13.1871C10.7686 13.9533 10.8657 14.8091 10.9931 15.73C11.3572 18.3602 11.8875 20.9896 12.6135 23.4369C14.6352 30.2546 17.7281 34.2669 21.9954 34.2669V34.27L21.9999 34.2669C26.2672 34.2669 29.3593 30.2538 31.3803 23.4369C32.1055 20.9896 32.635 18.3609 32.9984 15.7308C33.1259 14.8091 33.223 13.9541 33.2943 13.1879C33.3375 12.7297 33.3618 12.405 33.3732 12.2146C33.3891 12.0325 33.3072 11.9377 33.1964 11.9377H30.3516C29.929 11.9377 29.5861 11.5925 29.5861 11.1935C29.5861 10.7823 29.9108 10.4493 30.3523 10.4493H33.1972C34.2236 10.4493 34.9746 11.3156 34.8866 12.3216C34.8752 12.5074 34.8494 12.848 34.8054 13.3229C34.7236 14.1942 34.6224 15.0635 34.502 15.9303C34.1288 18.628 33.5856 21.3271 32.8368 23.8526C30.6467 31.2431 27.1684 35.7553 21.9999 35.7553L21.9954 35.7523V35.7553C16.8269 35.7553 13.3479 31.2431 11.1562 23.8526C10.4074 21.3271 9.86352 18.6287 9.48952 15.9303C9.36911 15.0635 9.26794 14.1942 9.18607 13.3229C9.15442 12.9964 9.12786 12.6694 9.10641 12.342C9.01614 11.3156 9.76793 10.4493 10.7943 10.4493H21.9954ZM18.3307 4.56921C19.5869 4.12699 20.8222 3.62755 22.0328 3.07245V3.07321C23.2433 3.62831 24.4786 4.12775 25.7348 4.56997C27.5161 5.19583 29.2632 5.67755 30.9116 5.95597L31.0103 5.97266C33.6852 6.41342 36.0832 6.45438 38.0563 6.25942C38.4713 6.21845 38.7656 6.17597 38.9287 6.14714C39.2276 6.11224 39.4613 6.32845 39.4431 6.68349C39.4378 6.95811 39.4203 7.43983 39.3824 8.11804C39.3179 9.25142 39.217 10.5153 39.0714 11.877C38.6572 15.7649 37.9706 19.6521 36.9525 23.273C34.088 33.4552 29.2389 39.4771 22.0001 39.4771C14.7621 39.4771 9.92441 33.4552 7.07958 23.273C6.06758 19.6529 5.38861 15.7657 4.98123 11.877C4.83861 10.5153 4.73999 9.25142 4.67778 8.11804C4.64061 7.44059 4.62392 6.95886 4.61937 6.70624C4.60192 6.32845 4.83709 6.11149 5.18227 6.15245C5.29909 6.17521 5.5942 6.21769 6.0084 6.25866C7.98234 6.45362 10.3803 6.4119 13.0552 5.9719L13.1539 5.95521C14.8023 5.6768 16.5494 5.19507 18.3307 4.56921Z" fill="#192D59"/>
</svg>
