<svg width="44" height="44" viewBox="0 0 44 44" fill="none" xmlns="http://www.w3.org/2000/svg">
<path fill-rule="evenodd" clip-rule="evenodd" d="M15.8612 12.6947L21.0141 7.54182H30.2814C30.4913 7.54182 30.8728 7.70016 31.023 7.85039L34.3929 11.2203C34.8186 11.6467 35.5786 11.9605 36.1766 11.9605H40.593C40.9997 11.9605 41.3295 11.6307 41.3295 11.224C41.3295 10.8173 40.9997 10.4876 40.593 10.4876H36.1766C35.9689 10.4876 35.5838 10.3285 35.4343 10.179L32.0636 6.80907C31.6387 6.3834 30.8831 6.06894 30.2814 6.06894H15.5556C14.9583 6.06894 14.1983 6.38267 13.7727 6.80907L10.4027 10.179C10.2525 10.3292 9.8725 10.4876 9.66408 10.4876H3.77111C3.36438 10.4876 3.03467 10.8173 3.03467 11.224C3.03467 11.6307 3.36438 11.9605 3.77111 11.9605H9.66408C10.265 11.9605 11.0177 11.646 11.4441 11.2203L14.814 7.85039C14.9635 7.70089 15.3487 7.54182 15.5556 7.54182H18.9314L14.8199 11.6534C14.2845 12.1887 14.1895 13.082 14.6071 13.7095L15.2757 14.711C15.6646 15.295 16.4688 15.6213 17.1537 15.4747L24.521 12.6851C24.9114 12.604 25.1664 12.2269 25.0962 11.8344C25.026 11.4418 24.6561 11.1765 24.2618 11.2358L16.8694 14.0291C16.7508 14.0541 16.5549 13.9746 16.5012 13.8936L15.8332 12.892C15.8067 12.853 15.8192 12.7367 15.8612 12.6947ZM28.5591 33.9983L25.1457 30.585C24.8582 30.2972 24.8583 29.8308 25.1461 29.5433C25.4339 29.2557 25.9002 29.2559 26.1878 29.5436L29.6005 32.9563L32.7141 29.8434L29.3324 26.4616C29.0533 26.1727 29.0573 25.7134 29.3414 25.4293C29.6254 25.1452 30.0847 25.1412 30.3737 25.4203L33.7554 28.802L36.0804 26.4771C36.2141 26.3452 36.288 26.1645 36.2851 25.9767C36.2822 25.7889 36.2026 25.6106 36.0649 25.4829L28.3065 16.7657C28.0092 16.4879 27.9934 16.0217 28.2712 15.7244C28.549 15.4271 29.0152 15.4112 29.3125 15.689L37.0701 24.407C37.3205 24.6404 37.5024 24.9181 37.6158 25.2163H40.5925C40.9993 25.2163 41.329 25.546 41.329 25.9528C41.329 26.3595 40.9993 26.6892 40.5925 26.6892H37.6409C37.5335 27.0019 37.3559 27.2858 37.1217 27.5192L27.4302 37.2107C26.5928 38.048 25.1877 38.1496 24.3172 37.4898L23.2892 36.9021C23.2076 36.8558 23.1356 36.7943 23.0771 36.721L22.3186 37.3536C21.4216 38.1003 20.015 38.1268 19.1077 37.4095L8.57072 29.0915C7.75622 28.4485 7.33203 27.5759 7.30184 26.6892H3.77062C3.36389 26.6892 3.03418 26.3595 3.03418 25.9528C3.03418 25.546 3.36389 25.2163 3.77062 25.2163H7.62808C7.81587 24.8407 8.08467 24.4872 8.43448 24.1772L11.7602 21.2204C12.6646 20.417 14.0682 20.5039 14.8791 21.4156L24.6936 32.457C25.085 32.896 25.2814 33.4752 25.2375 34.0617C25.1936 34.6483 24.9133 35.1918 24.4608 35.5677L24.2407 35.7511L25.1244 36.2607C25.4852 36.531 26.0692 36.489 26.3888 36.1694L28.5591 33.9991V33.9983ZM16.1456 25.0569L16.1459 25.0573V25.0565L16.1456 25.0569ZM13.779 22.3943L16.1456 25.0569L11.5977 29.604L9.48409 27.9353C8.56501 27.2099 8.53482 26.0588 9.41339 25.2782L12.7406 22.3207C13.0345 22.0592 13.5072 22.0887 13.779 22.3943ZM19.9577 29.3455L17.1254 26.1597L12.7612 30.5231L16.1245 33.1779L19.957 29.3455H19.9577ZM20.9363 30.4479L17.2873 34.097L20.0195 36.254C20.3781 36.5368 21.0107 36.525 21.3745 36.2216L23.5175 34.4357C23.6634 34.3151 23.7538 34.1403 23.7678 33.9515C23.7818 33.7628 23.7183 33.5765 23.5919 33.4357L20.9363 30.4479Z" fill="#192D59"/>
</svg>
