<svg width="44" height="44" viewBox="0 0 44 44" fill="none" xmlns="http://www.w3.org/2000/svg">
<path fill-rule="evenodd" clip-rule="evenodd" d="M16.35 8.25887C16.7223 8.44646 17.1761 8.29854 17.3664 7.92762C18.2517 6.16914 19.7538 5.31038 21.9993 5.31038C24.244 5.31038 25.7469 6.16838 26.6322 7.92762C26.753 8.17168 26.9953 8.33226 27.2672 8.34837C27.539 8.36448 27.7987 8.23365 27.9474 8.00558C28.0962 7.7775 28.1114 7.48717 27.9871 7.24486C26.8363 4.95686 24.7986 3.79314 21.9993 3.79314C19.1992 3.79314 17.1623 4.95762 16.0115 7.24486C15.8266 7.61846 15.9777 8.07128 16.35 8.25887ZM41.724 21.2239V35.6552C41.724 37.3311 40.3654 38.6897 38.6895 38.6897H5.31018C3.63428 38.6897 2.2757 37.3311 2.2757 35.6552V21.2588V12.8966C2.2757 11.2207 3.63428 9.86208 5.31018 9.86208H38.6895C40.3654 9.86208 41.724 11.2207 41.724 12.8966V21.2239ZM40.2059 20.6983V12.8966C40.2059 12.0587 39.5266 11.3794 38.6887 11.3794H5.30938C4.47143 11.3794 3.79213 12.0587 3.79213 12.8966V20.6983L17.4473 25.341V24.2759C17.4473 23.019 18.4662 22 19.7232 22H24.2749C25.5318 22 26.5508 23.019 26.5508 24.2759V25.341L40.2059 20.6983ZM26.5508 26.9432L40.2059 22.3005V35.6552C40.2059 36.4932 39.5266 37.1725 38.6887 37.1725H5.30938C4.47143 37.1725 3.79213 36.4932 3.79213 35.6552V22.3005L17.4473 26.9432V28.8276C17.4473 30.0846 18.4662 31.1035 19.7232 31.1035H24.2749C25.5318 31.1035 26.5508 30.0846 26.5508 28.8276V26.9432ZM19.7241 23.5172C19.3051 23.5172 18.9655 23.8569 18.9655 24.2759V28.8276C18.9655 29.2466 19.3051 29.5862 19.7241 29.5862H24.2758C24.6948 29.5862 25.0344 29.2466 25.0344 28.8276V24.2759C25.0344 23.8569 24.6948 23.5172 24.2758 23.5172H19.7241ZM40.9653 40.2069H3.03432C2.61534 40.2069 2.2757 40.5466 2.2757 40.9655C2.2757 41.3845 2.61534 41.7242 3.03432 41.7242H40.9653C41.3843 41.7242 41.724 41.3845 41.724 40.9655C41.724 40.5466 41.3843 40.2069 40.9653 40.2069ZM22.7654 25.7931C23.1796 25.7931 23.5164 26.1451 23.5164 26.5518C23.5164 26.9705 23.1887 27.3104 22.7654 27.3104H21.2329C20.8187 27.3104 20.4819 26.9584 20.4819 26.5518C20.4819 26.133 20.8096 25.7931 21.2329 25.7931H22.7654Z" fill="#192D59"/>
</svg>
