<svg width="44" height="44" viewBox="0 0 44 44" fill="none" xmlns="http://www.w3.org/2000/svg">
<path fill-rule="evenodd" clip-rule="evenodd" d="M29.5862 4.55172C29.5864 4.35049 29.5064 4.15747 29.3639 4.01538C29.2266 3.87807 29.037 3.7931 28.8276 3.7931H8.34483C7.0879 3.7931 6.06897 4.81204 6.06897 6.06897V37.931C6.06897 39.188 7.0879 40.2069 8.34483 40.2069H35.6552C36.9121 40.2069 37.931 39.188 37.931 37.931V12.3268L33.4628 7.81152C33.2751 7.60574 32.9898 7.51931 32.7196 7.58635C32.4493 7.65339 32.2374 7.86313 32.1677 8.13274C32.098 8.40235 32.1816 8.68848 32.3855 8.87814L36.4138 12.9504V37.931C36.4138 38.35 36.0741 38.6897 35.6552 38.6897H8.34483C7.92585 38.6897 7.58621 38.35 7.58621 37.931V6.06897C7.58621 5.64999 7.92585 5.31035 8.34483 5.31035H28.069V11.4043C28.069 12.6613 29.0879 13.6802 30.3448 13.6802H30.3699L32.629 13.6552C33.048 13.6506 33.3839 13.3072 33.3793 12.8882C33.3747 12.4692 33.0313 12.1333 32.6123 12.1379L30.3448 12.163C29.9259 12.163 29.5862 11.8233 29.5862 11.4043V4.55172ZM14.5062 17.4483C14.0351 17.4483 13.6558 17.7882 13.6558 18.2069C13.6558 18.6135 14.0366 18.9655 14.5054 18.9655H29.4958C29.9669 18.9655 30.3462 18.6257 30.3462 18.2069C30.3462 17.8003 29.9654 17.4483 29.4958 17.4483H14.5062ZM13.6558 23.5173C13.6558 23.0985 14.0351 22.7586 14.5062 22.7586H29.4958C29.9654 22.7586 30.3462 23.1106 30.3462 23.5173C30.3462 23.936 29.9669 24.2759 29.4958 24.2759H14.5054C14.0366 24.2759 13.6558 23.9239 13.6558 23.5173ZM14.1587 28.069C13.8803 28.069 13.6558 28.4088 13.6558 28.8276C13.6558 29.2342 13.8811 29.5862 14.1587 29.5862H23.0149C23.2933 29.5862 23.5178 29.2464 23.5178 28.8276C23.5178 28.421 23.2925 28.069 23.0149 28.069H14.1587ZM27.311 31.1035C26.054 31.1035 25.0351 30.0845 25.0351 28.8276C25.0351 27.5707 26.054 26.5517 27.311 26.5517C28.5679 26.5517 29.5868 27.5707 29.5868 28.8276C29.5868 30.0845 28.5679 31.1035 27.311 31.1035ZM28.0696 28.8276C28.0696 29.2466 27.7299 29.5862 27.311 29.5862C26.892 29.5862 26.5523 29.2466 26.5523 28.8276C26.5523 28.4086 26.892 28.069 27.311 28.069C27.7299 28.069 28.0696 28.4086 28.0696 28.8276Z" fill="#192D59"/>
</svg>
