<svg width="44" height="44" viewBox="0 0 44 44" fill="none" xmlns="http://www.w3.org/2000/svg">
<path d="M18.324 19C18.244 19 18.176 18.972 18.12 18.916C18.064 18.86 18.036 18.792 18.036 18.712V12.52L16.224 13.912C16.176 13.952 16.116 13.972 16.044 13.972C15.948 13.972 15.872 13.932 15.816 13.852L15.3 13.18C15.26 13.124 15.24 13.068 15.24 13.012C15.24 12.916 15.284 12.836 15.372 12.772L18.06 10.684C18.148 10.628 18.248 10.6 18.36 10.6H19.44C19.52 10.6 19.588 10.628 19.644 10.684C19.7 10.74 19.728 10.808 19.728 10.888V18.712C19.728 18.792 19.7 18.86 19.644 18.916C19.588 18.972 19.52 19 19.44 19H18.324Z" fill="#192D59"/>
<path d="M24.2504 19.132C23.5864 19.132 23.0104 19.02 22.5224 18.796C22.0424 18.572 21.6784 18.276 21.4304 17.908C21.1824 17.54 21.0504 17.144 21.0344 16.72V16.696C21.0344 16.632 21.0584 16.58 21.1064 16.54C21.1624 16.492 21.2224 16.468 21.2864 16.468H22.4264C22.6104 16.468 22.7264 16.548 22.7744 16.708C22.8864 17.06 23.0704 17.32 23.3264 17.488C23.5904 17.656 23.8984 17.74 24.2504 17.74C24.6984 17.74 25.0664 17.604 25.3544 17.332C25.6504 17.06 25.7984 16.684 25.7984 16.204C25.7984 15.772 25.6504 15.424 25.3544 15.16C25.0664 14.888 24.6984 14.752 24.2504 14.752C24.0104 14.752 23.8144 14.784 23.6624 14.848C23.5104 14.912 23.3624 15 23.2184 15.112C23.2024 15.12 23.1664 15.144 23.1104 15.184C23.0544 15.224 23.0024 15.252 22.9544 15.268C22.9144 15.284 22.8704 15.292 22.8224 15.292H21.6944C21.6224 15.292 21.5584 15.268 21.5024 15.22C21.4544 15.164 21.4304 15.1 21.4304 15.028L21.8384 10.936C21.8464 10.832 21.8824 10.752 21.9464 10.696C22.0184 10.632 22.1024 10.6 22.1984 10.6H26.7104C26.7984 10.6 26.8664 10.628 26.9144 10.684C26.9704 10.732 26.9984 10.8 26.9984 10.888V11.704C26.9984 11.784 26.9704 11.852 26.9144 11.908C26.8664 11.964 26.7984 11.992 26.7104 11.992H23.2424L23.0504 13.936C23.2344 13.816 23.4464 13.72 23.6864 13.648C23.9264 13.568 24.2384 13.528 24.6224 13.528C25.1424 13.528 25.6224 13.64 26.0624 13.864C26.5104 14.08 26.8664 14.396 27.1304 14.812C27.4024 15.22 27.5384 15.696 27.5384 16.24C27.5384 16.824 27.4024 17.336 27.1304 17.776C26.8584 18.208 26.4744 18.544 25.9784 18.784C25.4824 19.016 24.9064 19.132 24.2504 19.132Z" fill="#192D59"/>
<path fill-rule="evenodd" clip-rule="evenodd" d="M20.478 27.5956C15.898 27.0504 11.8483 24.1805 9.89023 19.975C8.20276 16.3498 8.27331 12.1592 10.0843 8.48022C11.8952 4.80121 15.1719 2.19147 19.0726 1.31875C20.01 1.1096 20.9692 1.00293 21.9234 1.00293C29.2008 1.00293 35.3484 7.11361 35.3484 14.3473C35.3484 20.5453 30.9647 26.0235 24.9254 27.3759C24.4657 27.4784 23.9997 27.5561 23.5302 27.6086L32.1919 40.2916L33.8776 35.3137L31.0311 31.1456C30.7691 30.7626 30.8682 30.2401 31.252 29.9781C31.6334 29.716 32.1575 29.8151 32.4196 30.1981L35.2665 34.3668L40.5158 34.608L33.7391 24.6838C33.4771 24.3008 33.5762 23.7784 33.9601 23.5163C34.3422 23.2542 34.8647 23.3533 35.1276 23.7364L42.8535 35.0506C43.1156 35.4336 43.0164 35.956 42.6326 36.2181C42.5242 36.2924 42.4041 36.3375 42.282 36.3554C42.2413 36.3613 42.2004 36.3643 42.1597 36.3643L42.1596 36.3643L42.1409 36.3642L42.1325 36.364L42.1201 36.3634L35.4009 36.0548L33.2531 42.3966C33.1997 42.5748 33.087 42.7367 32.9211 42.8504C32.7766 42.9478 32.612 42.9957 32.4482 42.9957L32.4474 42.9957C32.3974 42.9956 32.3476 42.9911 32.2986 42.9823C32.0849 42.9439 31.886 42.8233 31.7536 42.6295L21.9997 28.3468L12.2447 42.6303C12.0826 42.868 11.8189 42.9957 11.5509 42.9957C11.388 42.9957 11.2225 42.9478 11.078 42.8495C10.9183 42.7399 10.8081 42.5853 10.7528 42.4145L8.59893 36.0547L1.87877 36.3634C1.8688 36.364 1.85829 36.3642 1.8481 36.3642L1.84011 36.3643C1.67716 36.3643 1.51169 36.3172 1.36721 36.2181C1.25269 36.1397 1.16363 36.0381 1.10202 35.9239C1.04359 35.816 1.00796 35.6936 1.00186 35.5629C1.00124 35.5492 1.00094 35.5355 1.00098 35.5219C1.00124 35.3593 1.04863 35.195 1.14715 35.0506L8.8739 23.7364C9.13513 23.3533 9.65926 23.2542 10.0414 23.5163C10.4245 23.7784 10.5227 24.3008 10.2615 24.6838L3.48411 34.6079L8.73341 34.3667L11.5802 30.1981C11.8423 29.8143 12.3648 29.716 12.7478 29.978C13.1308 30.2401 13.2291 30.7626 12.9679 31.1456L10.1214 35.3136L11.8073 40.292L20.478 27.5956ZM19.4397 2.95919C20.2578 2.77608 21.0936 2.68368 21.9243 2.68368C28.2911 2.68368 33.6702 8.02496 33.6694 14.3473C33.6694 19.7659 29.8375 24.5553 24.5592 25.7363C23.7453 25.9185 22.9079 26.0101 22.0696 26.0101H22.0687C17.5036 26.0101 13.3206 23.3634 11.4139 19.2669C9.94147 16.1045 10.0061 12.444 11.592 9.22274C13.177 6.00319 16.0379 3.72019 19.4397 2.95919Z" fill="#192D59"/>
</svg>
