<svg width="44" height="44" viewBox="0 0 44 44" fill="none" xmlns="http://www.w3.org/2000/svg">
<path fill-rule="evenodd" clip-rule="evenodd" d="M28.0695 3.02694C28.0695 2.61274 28.4215 2.27591 28.8281 2.27591C29.2469 2.27591 29.5867 2.60363 29.5867 3.02694V6.0766C29.5867 6.49081 29.2347 6.82763 28.8281 6.82763C28.4094 6.82763 28.0695 6.49991 28.0695 6.0766V3.02694ZM38.6892 4.54796V9.8621C37.4215 8.90927 35.8451 8.34486 34.1375 8.34486C29.9476 8.34486 26.5513 11.7412 26.5513 15.9311C26.5513 20.1209 29.9476 23.5173 34.1375 23.5173C38.3273 23.5173 41.7237 20.1209 41.7237 15.9311C41.7261 14.2892 41.1935 12.6913 40.2064 11.3793V4.54796C40.2064 4.11934 39.8666 3.79313 39.4478 3.79313C39.0412 3.79313 38.6892 4.13072 38.6892 4.54796ZM17.4481 10.6359V21.5039V21.5054C16.0682 20.85 14.5252 20.4835 12.8964 20.4835C7.03075 20.4835 2.27571 25.2386 2.27571 31.1042C2.27571 36.9699 7.03075 41.7249 12.8964 41.7249C18.7621 41.7249 23.5171 36.9699 23.5171 31.1042C23.5171 27.4955 21.7169 24.307 18.9654 22.3877V10.6367C18.9654 10.2004 18.6255 9.86286 18.2067 9.86286C17.8001 9.86286 17.4481 10.2088 17.4481 10.6359ZM12.8956 40.2069C17.923 40.2069 21.9991 36.1308 21.9991 31.1035C21.9991 26.0761 17.923 22 12.8956 22C7.86822 22 3.79215 26.0761 3.79215 31.1035C3.79215 36.1308 7.86822 40.2069 12.8956 40.2069ZM6.069 12.8966C5.66238 12.8966 5.31038 13.2342 5.31038 13.6514V19.728C5.31038 20.1566 5.65024 20.4828 6.069 20.4828C6.47562 20.4828 6.82762 20.1452 6.82762 19.728V13.6514C6.82762 13.2228 6.48776 12.8966 6.069 12.8966ZM11.3797 4.56617C11.3797 4.13906 11.7317 3.79313 12.1383 3.79313C12.5571 3.79313 12.897 4.13072 12.897 4.56692V16.6745C12.897 17.096 12.5598 17.44 12.1383 17.4483C11.7196 17.4483 11.3797 17.1107 11.3797 16.6745V4.56692V4.56617ZM40.2074 15.931C40.2074 19.2828 37.4903 22 34.1385 22C30.7867 22 28.0695 19.2828 28.0695 15.931C28.0695 12.5792 30.7867 9.86208 34.1385 9.86208C37.4903 9.86208 40.2074 12.5792 40.2074 15.931ZM34.1377 20.4828C31.6238 20.4828 29.5859 18.4449 29.5859 15.9311C29.5859 13.4172 31.6238 11.3794 34.1377 11.3794C36.6515 11.3794 38.6894 13.4172 38.6894 15.9311C38.6894 18.4449 36.6515 20.4828 34.1377 20.4828ZM37.1713 15.9311C37.1713 17.607 35.8128 18.9655 34.1369 18.9655C32.461 18.9655 31.1024 17.607 31.1024 15.9311C31.1024 14.2552 32.461 12.8966 34.1369 12.8966C35.8128 12.8966 37.1713 14.2552 37.1713 15.9311ZM8.34524 31.1035L8.34449 31.0656H8.34524C8.34847 30.6805 8.40047 30.2974 8.5 29.9253C8.57866 29.6609 8.50752 29.3746 8.31424 29.1777C8.12096 28.9808 7.83602 28.9043 7.57014 28.9781C7.30426 29.0518 7.09937 29.2641 7.03511 29.5324C6.78339 30.4661 6.75946 31.4467 6.96531 32.3916C7.15472 33.2665 7.53614 34.0885 8.082 34.798C8.62605 35.5089 9.32126 36.0901 10.1174 36.4996C10.7388 36.8204 11.4114 37.0307 12.105 37.1209C12.7981 37.2132 13.5019 37.1842 14.1851 37.0351C15.06 36.8457 15.8819 36.4643 16.5915 35.9185C17.3024 35.3744 17.8836 34.6792 18.293 33.8831C18.6139 33.2616 18.8241 32.589 18.9143 31.8955C19.0084 31.1885 18.975 30.4852 18.8286 29.8153C18.6392 28.9404 18.2578 28.1185 17.7119 27.409C17.1679 26.698 16.4727 26.1169 15.6766 25.7074C14.8436 25.2773 13.8983 25.0345 12.897 25.0345C12.478 25.0345 12.1383 25.3742 12.1383 25.7931C12.1383 26.2121 12.478 26.5518 12.897 26.5518C13.622 26.5521 14.3366 26.7251 14.9817 27.0562C15.5779 27.3644 16.0991 27.8 16.508 28.3322C16.9166 28.865 17.2028 29.4812 17.3463 30.137C17.5691 31.17 17.427 32.2482 16.9442 33.1882L16.9351 33.2064C16.6331 33.787 16.2089 34.2953 15.6917 34.6963C15.1537 35.1145 14.5291 35.4071 13.8635 35.5528C12.8305 35.7756 11.7522 35.6335 10.8123 35.1507L10.7941 35.1416C10.2135 34.8396 9.70517 34.4154 9.30414 33.8982C8.88596 33.3603 8.59333 32.7356 8.44766 32.07C8.3809 31.7582 8.34524 31.435 8.34524 31.1035Z" fill="#1E315C"/>
</svg>
