<svg width="44" height="44" viewBox="0 0 44 44" fill="none" xmlns="http://www.w3.org/2000/svg">
<path d="M34.2666 26.1333L29.7333 24.4L24.5333 37.2667L23.4666 30H24.1332L25.1333 28L24.1332 26H19.9999L18.9999 28L19.9999 30H20.6666L19.5999 37.4667L14.4666 24.7333L9.79989 26.2C6.33322 27.4 3.99988 30.6667 3.99988 34.2667V42.6667H39.9999V34.2667C39.9999 30.6667 37.6666 27.4 34.2666 26.1333ZM20.7332 28.6667L20.3999 28L20.7332 27.3334H23.2666L23.5999 28L23.2666 28.6667H20.7332ZM5.33321 41.3334V34.2667C5.33321 31.2 7.26655 28.4 10.1999 27.4L13.6666 26.3333L19.6666 41.3334H5.33321ZM21.1332 41.3334L20.5332 39.9334L21.9332 30H22.1332L23.5999 39.7334L22.9332 41.3334H21.1332ZM38.6666 41.3334H24.3333L30.4666 26.1333L33.7999 27.4C36.7333 28.4667 38.6666 31.2 38.6666 34.3334V41.3334Z" fill="#192D59"/>
<path d="M11.0665 14.5333C11.0665 16.3333 12.7998 16 12.7998 16C14.2665 20.2667 17.6665 24.6667 21.9998 24.6667C26.3332 24.6667 29.7332 20.2667 31.1999 16C32.1332 15.8667 32.8665 15.2 32.9332 14.2667L33.3332 12.2C33.3999 11.6667 33.1999 10.4667 31.9332 10.0666C31.5332 6.99998 28.5999 1.3333 21.9998 1.3333C16.9332 1.3333 12.7998 5.06664 12.1332 10.0666C10.7998 10.5333 10.6665 11.6667 10.7332 12.2667C10.6665 12.2667 11.0665 14.4 11.0665 14.5333ZM21.9998 2.66663C24.9332 2.66663 27.4665 4.1333 29.0665 6.39997L24.3332 4.1333C24.3332 4.1333 22.6665 8.66665 17.8665 8.66665H13.7332C14.9332 5.13331 18.1998 2.66663 21.9998 2.66663ZM12.7332 11.3333H13.3332C13.3332 11.3333 13.4665 10.2666 13.4665 9.99998H17.9332C20.8665 9.99998 23.5332 8.39998 24.9999 5.86664L30.1332 8.33331C30.6665 9.73331 30.7332 11.3333 30.7332 11.3333H31.3999C31.9332 11.4 32.0665 11.8667 32.0665 12L31.6665 14.0667C31.5999 14.4 31.3332 14.6667 30.9999 14.6667H30.2665L30.1332 15.1333C28.8665 19.2 25.7332 23.3333 22.0665 23.3333C18.3998 23.3333 15.2665 19.2 13.9998 15.1333L13.8665 14.6667H12.5332C12.5332 14.6 12.3998 13.2 12.1332 12.0667C11.9332 11.8667 12.0665 11.3333 12.7332 11.3333Z" fill="#192D59"/>
</svg>
