<svg width="44" height="44" viewBox="0 0 44 44" fill="none" xmlns="http://www.w3.org/2000/svg">
<path d="M3.43883 1.37685C2.30809 1.37685 1.37365 2.30585 1.37365 3.43661V18.5603C1.37227 18.942 1.68205 19.2519 2.06383 19.2505H6.87499V19.9353C6.87499 21.8278 8.41863 23.3715 10.3111 23.3715C12.2036 23.3715 13.7513 21.8278 13.7513 19.9353V19.2505H17.8723V24.0616C17.8737 24.4413 18.1828 24.7479 18.5625 24.7464H19.9375C21.092 24.7464 21.9986 25.6584 21.9986 26.8129C21.9986 27.9675 21.092 28.8728 19.9375 28.8728H18.5625C18.1807 28.8714 17.8708 29.1812 17.8723 29.563V34.3741H3.43883C3.04605 34.3741 2.74865 34.0767 2.74865 33.6839V21.3116C2.76969 20.3741 1.3526 20.3741 1.37365 21.3116V33.6839C1.37365 34.8146 2.30809 35.7505 3.43883 35.7505H18.5625C18.9427 35.7491 19.2495 35.4391 19.2473 35.0589V30.2478H19.9375C21.83 30.2478 23.3736 28.7054 23.3736 26.8129C23.3736 24.9205 21.83 23.3714 19.9375 23.3714H19.2473V13.0589C19.2458 12.6813 18.9401 12.3756 18.5625 12.3741H17.1875C16.033 12.3741 15.1277 11.4688 15.1277 10.3143C15.1277 9.15975 16.033 8.24776 17.1875 8.24776H18.5625C18.9401 8.24638 19.2458 7.94055 19.2473 7.56294V2.7464H33.6861C34.0789 2.7464 34.3763 3.04386 34.3763 3.43661V17.8754H30.25V17.1853C30.25 15.2928 28.7077 13.7491 26.8152 13.7491C24.9227 13.7491 23.3736 15.2928 23.3736 17.1853V17.8754H21.3138C20.4172 17.8962 20.4172 19.2306 21.3138 19.2505H24.0638C24.444 19.2498 24.7514 18.9405 24.75 18.5603V17.1853C24.75 16.0308 25.6606 15.1255 26.8152 15.1255C27.9697 15.1255 28.875 16.0308 28.875 17.1853V18.5603C28.8736 18.9399 29.1801 19.2489 29.5598 19.2505H35.0625C35.4443 19.2518 35.7541 18.942 35.7527 18.5603V3.43661C35.7527 2.30588 34.8169 1.37678 33.6861 1.37678H18.5269C18.1396 1.41211 17.872 1.70815 17.8723 2.06159V6.87282H17.1875C15.295 6.87282 13.7513 8.42177 13.7513 10.3143C13.7513 12.2067 15.295 13.7491 17.1875 13.7491H17.8723V17.8754H13.0611C12.6836 17.8768 12.3778 18.1827 12.3763 18.5603V19.9353C12.3763 21.0898 11.4657 22.0018 10.3111 22.0018C9.15661 22.0018 8.24999 21.0898 8.24999 19.9353V18.5603C8.24861 18.1806 7.93948 17.874 7.5598 17.8754H2.74865V3.43661C2.74865 3.04386 3.04608 2.7464 3.43883 2.7464H15.8125C16.7567 2.82981 16.8354 1.39432 15.8501 1.37543L3.43883 1.37685ZM4.80443 4.11199C4.4226 4.11719 4.11754 4.43119 4.12499 4.81298V5.49779C4.10477 6.43447 5.52021 6.43447 5.49999 5.49779V4.81298C5.50755 4.42488 5.19257 4.10739 4.80443 4.11199ZM4.80443 7.55224C4.42474 7.55743 4.12054 7.86808 4.12499 8.24776V11.6893C4.10477 12.626 5.52021 12.626 5.49999 11.6893V8.24776C5.50479 7.86176 5.19042 7.54772 4.80443 7.55224ZM33.6861 20.6268C31.7937 20.6268 30.25 22.1692 30.25 24.0616V24.7464H25.4402C25.0579 24.745 24.7478 25.0557 24.75 25.438V30.9393C24.7514 31.3189 25.0605 31.6255 25.4402 31.6241H26.8152C27.9697 31.6241 28.875 32.5294 28.875 33.6839C28.875 34.8384 27.9697 35.7505 26.8152 35.7505H25.4402C25.0605 35.7491 24.7515 36.0556 24.75 36.4353V41.9366C24.7486 42.3184 25.0584 42.6282 25.4402 42.6268H40.5625C41.6932 42.6268 42.6236 41.691 42.6236 40.5603V25.438C42.6257 25.0578 42.319 24.748 41.9388 24.7464H37.1277V24.0616C37.1277 22.1692 35.5786 20.6268 33.6861 20.6268ZM33.6861 22.0018C34.8407 22.0018 35.7527 22.9071 35.7527 24.0616V25.438C35.7541 25.8156 36.0599 26.1213 36.4375 26.1228H41.2486V40.5603C41.2486 40.953 40.9553 41.2518 40.5625 41.2518H26.125V37.1254H26.8152C28.7076 37.1254 30.25 35.5764 30.25 33.6839C30.25 31.7914 28.7076 30.2478 26.8152 30.2478H26.125V26.1228H30.9361C31.3158 26.1242 31.6248 25.8177 31.6263 25.438V24.0616C31.6263 22.9071 32.5316 22.0018 33.6861 22.0018Z" fill="#192D59"/>
</svg>
