<svg width="44" height="44" viewBox="0 0 44 44" fill="none" xmlns="http://www.w3.org/2000/svg">
<path fill-rule="evenodd" clip-rule="evenodd" d="M18.2144 40.2069H35.6672C36.4819 40.2069 37.1723 39.5272 37.1723 38.6889V34.138H23.4215C23.0745 35.4771 21.866 36.4123 20.4826 36.4123C19.0993 36.4123 17.8908 35.4771 17.5437 34.138H15.8353C15.4883 35.4771 14.2798 36.4123 12.8964 36.4123C11.5131 36.4123 10.3046 35.4771 9.95753 34.138H6.82746V38.6889C6.82746 39.528 7.50112 40.2069 8.33257 40.2069H12.131C12.5535 40.2069 12.8964 40.5589 12.8964 40.9655C12.8985 41.1687 12.8182 41.364 12.6738 41.507C12.5295 41.6499 12.3333 41.7283 12.1302 41.7242H8.33257C6.65981 41.7242 5.31022 40.3624 5.31022 38.6889V5.31038C5.31022 3.64141 6.67422 2.27589 8.33257 2.27589H35.6672C37.3399 2.27589 38.6895 3.63762 38.6895 5.31114V38.6897C38.6895 40.3587 37.3255 41.7242 35.6672 41.7242H18.2144C17.791 41.7242 17.4482 41.3722 17.4482 40.9655C17.4482 40.5468 17.7728 40.2069 18.2144 40.2069ZM17.5444 32.6208C17.8915 31.2816 19.0999 30.3465 20.4833 30.3465C21.8667 30.3465 23.0751 31.2816 23.4222 32.6208H37.173V26.5518H34.0429C33.6958 27.8909 32.4874 28.8261 31.104 28.8261C29.7206 28.8261 28.5122 27.8909 28.1651 26.5518H15.836C15.4889 27.8909 14.2805 28.8261 12.8971 28.8261C11.5137 28.8261 10.3053 27.8909 9.95819 26.5518H6.82813V32.6208H9.95819C10.3053 31.2816 11.5137 30.3465 12.8971 30.3465C14.2805 30.3465 15.4889 31.2816 15.836 32.6208H17.5444ZM31.104 22.7602C29.7206 22.7602 28.5122 23.6954 28.1651 25.0345H15.836C15.4889 23.6954 14.2805 22.7602 12.8971 22.7602C11.5137 22.7602 10.3053 23.6954 9.95819 25.0345H6.82813V18.9656H9.95819C10.3053 20.3047 11.5137 21.2399 12.8971 21.2399C14.2805 21.2399 15.4889 20.3047 15.836 18.9656H17.5444C17.8915 20.3047 19.0999 21.2399 20.4833 21.2399C21.8667 21.2399 23.0751 20.3047 23.4222 18.9656H37.173V25.0345H34.0429C33.6958 23.6954 32.4874 22.7602 31.104 22.7602ZM23.4222 17.4483H37.173V11.3793H31.0084C30.6613 12.7185 29.4529 13.6537 28.0695 13.6537C26.6861 13.6537 25.4777 12.7185 25.1306 11.3793H15.836C15.4889 12.7185 14.2805 13.6537 12.8971 13.6537C11.5137 13.6537 10.3053 12.7185 9.95819 11.3793H6.82813V17.4483H9.95819C10.3053 16.1092 11.5137 15.174 12.8971 15.174C14.2805 15.174 15.4889 16.1092 15.836 17.4483H17.5444C17.8915 16.1092 19.0999 15.174 20.4833 15.174C21.8667 15.174 23.0751 16.1092 23.4222 17.4483ZM37.173 9.86209H31.0084C30.6613 8.52296 29.4529 7.58779 28.0695 7.58779C26.6861 7.58779 25.4777 8.52296 25.1306 9.86209H15.836C15.4889 8.52296 14.2805 7.58779 12.8971 7.58779C11.5137 7.58779 10.3053 8.52296 9.9582 9.86209H6.82813V5.31113C6.82813 4.47285 7.51847 3.79313 8.33323 3.79313H35.6678C36.0688 3.79473 36.4526 3.95559 36.7349 4.24029C37.0172 4.525 37.1748 4.91021 37.173 5.31113V9.86209ZM12.8965 12.138C13.7344 12.138 14.4137 11.4587 14.4137 10.6208C14.4137 9.78281 13.7344 9.10352 12.8965 9.10352C12.0585 9.10352 11.3792 9.78281 11.3792 10.6208C11.3792 11.4587 12.0585 12.138 12.8965 12.138ZM29.5853 10.6208C29.5853 11.4587 28.906 12.138 28.068 12.138C27.2301 12.138 26.5508 11.4587 26.5508 10.6208C26.5508 9.78281 27.2301 9.10352 28.068 9.10352C28.906 9.10352 29.5853 9.78281 29.5853 10.6208ZM12.8965 19.7242C13.7344 19.7242 14.4137 19.0449 14.4137 18.2069C14.4137 17.369 13.7344 16.6897 12.8965 16.6897C12.0585 16.6897 11.3792 17.369 11.3792 18.2069C11.3792 19.0449 12.0585 19.7242 12.8965 19.7242ZM21.9995 18.2069C21.9995 19.0449 21.3202 19.7242 20.4822 19.7242C19.6443 19.7242 18.965 19.0449 18.965 18.2069C18.965 17.369 19.6443 16.6897 20.4822 16.6897C21.3202 16.6897 21.9995 17.369 21.9995 18.2069ZM12.8965 27.3104C13.7344 27.3104 14.4137 26.6311 14.4137 25.7931C14.4137 24.9552 13.7344 24.2759 12.8965 24.2759C12.0585 24.2759 11.3792 24.9552 11.3792 25.7931C11.3792 26.6311 12.0585 27.3104 12.8965 27.3104ZM32.6199 25.7931C32.6199 26.6311 31.9406 27.3104 31.1027 27.3104C30.2647 27.3104 29.5855 26.6311 29.5855 25.7931C29.5855 24.9552 30.2647 24.2759 31.1027 24.2759C31.9406 24.2759 32.6199 24.9552 32.6199 25.7931ZM12.8965 34.8966C13.7344 34.8966 14.4137 34.2173 14.4137 33.3794C14.4137 32.5414 13.7344 31.8621 12.8965 31.8621C12.0585 31.8621 11.3792 32.5414 11.3792 33.3794C11.3792 34.2173 12.0585 34.8966 12.8965 34.8966ZM21.9995 33.3794C21.9995 34.2173 21.3202 34.8966 20.4822 34.8966C19.6443 34.8966 18.965 34.2173 18.965 33.3794C18.965 32.5414 19.6443 31.8621 20.4822 31.8621C21.3202 31.8621 21.9995 32.5414 21.9995 33.3794Z" fill="#192D59"/>
</svg>
