<svg width="16" height="16" viewBox="0 0 16 16" fill="none" xmlns="http://www.w3.org/2000/svg">
<g opacity="0.9" clip-path="url(#clip0)">
<path d="M15.3489 15.2885V15.2879H15.3525L15.3525 9.89669C15.3525 7.25926 14.7848 5.2276 11.7014 5.2276C10.2192 5.2276 9.22448 6.041 8.81839 6.81214H8.77552V5.47383L5.85205 5.47383L5.85205 15.2879H8.89618L8.89618 10.4283C8.89618 9.14883 9.13873 7.91158 10.7233 7.91158C12.2845 7.91158 12.3078 9.37178 12.3078 10.5104L12.3078 15.2885H15.3489Z" fill="#192D59"/>
<path d="M0.89502 5.47424L3.94282 5.47424L3.94282 15.2883H0.89502L0.89502 5.47424Z" fill="#192D59"/>
<path d="M2.41757 0.588379C1.44308 0.588379 0.652344 1.37912 0.652344 2.3536C0.652344 3.32809 1.44308 4.13537 2.41757 4.13537C3.39206 4.13537 4.18279 3.32809 4.18279 2.3536C4.18218 1.37912 3.39144 0.588379 2.41757 0.588379V0.588379Z" fill="#192D59"/>
</g>
<defs>
<clipPath id="clip0">
<rect width="14.7" height="14.7" fill="white" transform="translate(0.652344 0.588379)"/>
</clipPath>
</defs>
</svg>
