<svg width="12" height="12" viewBox="0 0 12 12" fill="none" xmlns="http://www.w3.org/2000/svg">
<g opacity="0.8" clip-path="url(#clip0)">
<path d="M11.9482 11.9499V11.9494H11.9511V7.58504C11.9511 5.44998 11.4915 3.8053 8.99546 3.8053C7.79555 3.8053 6.99031 4.46376 6.66158 5.08802H6.62687V4.00462H4.26025L4.26025 11.9494H6.72455L6.72455 8.01542C6.72455 6.97962 6.9209 5.97804 8.20362 5.97804C9.4675 5.97804 9.48634 7.16011 9.48634 8.08186V11.9499L11.9482 11.9499Z" fill="white"/>
<path d="M0.24707 4.005H2.71434L2.71434 11.9497H0.24707L0.24707 4.005Z" fill="white"/>
<path d="M1.47977 0.0498047C0.690902 0.0498047 0.0507813 0.689926 0.0507813 1.4788C0.0507813 2.26767 0.690902 2.92118 1.47977 2.92118C2.26864 2.92118 2.90876 2.26767 2.90876 1.4788C2.90827 0.689926 2.26815 0.0498047 1.47977 0.0498047V0.0498047Z" fill="white"/>
</g>
<defs>
<clipPath id="clip0">
<rect width="11.9" height="11.9" fill="white" transform="translate(0.0507812 0.0498047)"/>
</clipPath>
</defs>
</svg>
