<svg width="227" height="227" viewBox="0 0 227 227" fill="none" xmlns="http://www.w3.org/2000/svg">
<path d="M226.681 113.34C226.681 175.823 176.065 226.681 113.34 226.681C50.8578 226.681 0 176.065 0 113.34C0 50.8579 50.6157 0 113.34 0C176.065 0.24218 226.681 50.8579 226.681 113.34Z" fill="white"/>
<path d="M93.9598 153.785H88.3896C76.5228 153.785 65.1403 154.269 65.1403 133.684C65.1403 114.309 76.2806 112.856 85.4834 112.856H93.9598V153.785ZM70.4683 92.0287C70.4683 74.8339 80.3977 73.1386 88.3896 73.1386H93.9598V111.161H85.4834C77.7337 111.161 70.4683 110.192 70.4683 92.0287ZM132.466 112.614V111.161H103.163V84.7633C103.163 77.4979 105.584 73.1386 110.67 73.1386V71.6855H89.3583C72.8901 71.6855 59.5702 73.623 59.5702 92.2709C59.5702 110.919 76.2806 111.645 78.7024 111.645C70.9527 111.645 54 114.309 54 134.168C54 154.753 68.773 155.48 89.3583 155.48H110.67V154.027C105.584 154.027 103.163 150.152 103.163 142.16V112.856H132.466V112.614Z" fill="#192D59"/>
<path d="M140.706 111.161H132.23V73.1387H137.8C145.792 73.1387 155.721 74.834 155.721 92.0288C155.964 110.192 148.456 111.161 140.706 111.161ZM175.096 143.855C168.799 116.005 161.534 112.856 153.542 111.645C153.3 111.645 147.487 111.403 147.487 111.403H147.73C150.878 111.403 166.62 110.192 166.62 92.0288C166.62 73.3809 153.3 71.4435 136.831 71.4435H115.52V72.8966C120.847 72.8966 123.027 73.8653 123.027 81.1307V140.949C123.027 152.09 120.605 153.3 115.52 153.3V154.754H139.738V153.3C134.652 153.3 132.23 151.605 132.23 143.129V112.13H141.675C146.276 112.13 158.87 116.247 161.776 128.84C167.831 154.511 166.62 154.754 178.971 154.754H186.721V153.3C184.057 153.543 177.276 153.058 175.096 143.855Z" fill="#192D59"/>
</svg>
