<svg width="200" height="53" viewBox="0 0 200 53" fill="none" xmlns="http://www.w3.org/2000/svg">
<path d="M52.8813 26.4407C52.8813 41.0169 41.0734 52.8813 26.4406 52.8813C11.8644 52.8813 0 41.0734 0 26.4407C0 11.8644 11.8079 0 26.4406 0C41.0734 0.0564971 52.8813 11.8644 52.8813 26.4407Z" fill="white"/>
<path d="M76.1016 26.4972H74.5762V34.9153H75.6497C78.079 34.9153 80.3389 34.9718 80.3389 30.678C80.3389 26.6102 77.9095 26.4972 76.1016 26.4972ZM74.5762 17.9661V26.1582H76.1016C77.6271 26.1582 79.322 25.7062 79.322 21.8644C79.322 18.1921 77.2316 17.9096 75.7062 17.9096H74.5762V17.9661ZM75.5367 35.2542H70.5084V35.0283C71.5819 35.0283 71.9774 33.9548 71.9774 32.2599V20.6215C71.9774 19.0961 71.6384 17.9096 70.5084 17.9096V17.6271H75.5367C79.0395 17.6271 81.9773 17.8531 81.9773 21.9209C81.9773 25.8192 78.305 26.2147 77.7965 26.2147C79.435 26.2147 83.1638 26.5537 83.1638 30.791C83.1638 35.1412 79.8869 35.2542 75.5367 35.2542Z" fill="white"/>
<path d="M94.2374 28.9266C94.2374 25.2543 92.5989 23.7853 91.4125 23.7853C90.0001 23.7853 88.3617 25.7627 88.3617 28.9266H94.2374ZM95.9888 32.3164C95.7063 33.5028 94.3503 35.4802 91.356 35.4802C88.2487 35.4802 85.9888 32.8814 85.9888 29.548C85.9888 25.8192 88.3617 23.4464 91.469 23.4464C94.3503 23.4464 96.3843 25.3108 96.3843 29.2091H88.3617C88.4746 32.5989 89.9436 33.9548 91.921 34.1243C93.4464 34.2938 95.1978 33.3333 95.6498 32.1469L95.9888 32.3164Z" fill="white"/>
<path d="M107.232 24.0113C107.74 24.6328 107.684 25.4802 107.062 25.9887C106.497 26.4407 105.65 26.4407 105.085 25.8192C104.859 25.5367 104.746 25.1978 104.802 24.8588C104.859 24.4068 103.22 25.0283 102.429 26.7232V32.9379C102.429 34.3503 102.542 34.6893 103.446 34.9153V35.2542H99.2092V34.9153C100.17 34.6328 100.226 34.2373 100.226 32.9379V25.9887C100.226 25.0848 100 24.7458 98.9832 24.4633V24.1808L102.429 23.4464V26.1017C103.333 24.4068 104.802 23.6723 105.763 23.5593C106.215 23.5028 106.836 23.6158 107.232 24.0113Z" fill="white"/>
<path d="M114.124 23.7854C112.881 23.7854 111.638 24.4633 111.638 27.2882C111.638 30.1131 113.051 30.791 114.124 30.791C115.254 30.791 116.667 30.0566 116.667 27.2882C116.667 24.5198 115.198 23.7854 114.124 23.7854ZM116.667 39.8306C118.644 38.6441 118.418 37.0622 118.418 37.0622C118.418 37.0622 118.305 35.7628 116.158 35.7628H112.712C112.429 35.7628 111.469 35.7628 110.565 35.4238C108.192 37.0057 110.113 39.1526 110.113 39.1526C111.356 40.565 114.463 41.1865 116.667 39.8306ZM119.322 25.1413C119.096 24.9153 119.039 24.5763 119.096 24.2938C119.152 24.0679 118.361 24.1809 117.909 24.8588C118.531 25.4803 118.813 26.3842 118.813 27.2882C118.813 29.3221 117.062 31.13 114.124 31.13C113.164 31.13 112.373 30.9605 111.751 30.678C110.565 30.904 109.322 33.4464 112.26 33.4464H115.254C117.005 33.4464 120 33.3334 119.548 36.6102C119.548 36.6102 119.491 38.5876 116.836 40.0565C113.39 41.9774 109.491 41.582 108.474 39.7176C107.57 38.0226 108.644 36.1582 110.282 35.2543C109.548 34.9153 109.152 34.2373 109.152 33.3334C109.152 33.3334 109.039 31.243 111.356 30.565C110.056 30.0001 109.378 28.5876 109.378 27.2882C109.378 25.2543 111.186 23.4464 114.068 23.4464C115.593 23.4464 116.779 23.8984 117.627 24.6328C118.248 23.6724 119.265 23.3334 119.887 23.2204C120.282 23.2204 120.734 23.3334 121.017 23.6724C121.412 24.1809 121.299 24.8588 120.847 25.2543C120.395 25.6498 119.661 25.5933 119.322 25.1413Z" fill="white"/>
<path d="M134.18 21.7514L135.932 24.3503C139.265 22.2599 138.87 19.4915 137.683 17.9661C136.949 17.2316 135.819 16.8927 134.802 17.2316C133.277 17.7966 132.994 20 134.18 21.7514ZM138.305 31.7514L134.124 25.7627L132.712 26.6667C131.243 27.6836 129.83 30.3955 131.977 32.9378C133.615 34.7458 137.062 34.6893 138.305 31.7514ZM145.706 32.7119C145.706 34.5198 144.293 35.3672 143.163 35.4802C143.163 35.4802 141.017 35.7062 140.056 34.2373L138.587 32.0339C137.74 34.8587 132.655 37.1186 130.056 33.7853C127.457 30.452 130.565 27.4576 132.599 26.3277L134.011 25.4802L132.768 23.6158C130.282 20.2825 131.638 17.2316 134.406 16.7232C136.045 16.4407 137.231 16.8927 138.022 17.7401C139.096 18.9831 140.056 22.0339 136.214 24.6328L139.548 29.6045C140.508 27.2316 141.864 26.7797 142.542 26.6667C143.051 26.5537 143.672 26.6102 144.067 26.9491C144.519 27.3446 144.745 28.1356 144.18 28.7006C143.728 29.209 142.937 29.322 142.373 28.87C142.09 28.6441 141.977 28.3616 141.921 28.0226C141.921 27.4576 140.395 27.8531 139.717 29.887L141.695 32.7119C142.486 33.8418 143.672 33.8983 143.672 33.8983C144.463 33.8983 145.254 33.6158 145.367 32.7119H145.706Z" fill="white"/>
<path d="M158.587 17.9661H157.853V26.8362H158.644C161.469 26.8362 163.616 26.8362 163.616 22.4294C163.559 17.8531 161.299 17.9661 158.587 17.9661ZM169.039 35.2542H167.118C163.898 35.2542 164.294 35.2542 162.881 29.774C162.203 27.1187 159.661 27.1187 158.983 27.1187H157.853V32.5989C157.853 34.3503 158.418 34.8588 159.435 34.8588V35.1977H153.842V34.8588C154.915 34.8588 155.367 34.3503 155.367 32.2599V19.774C155.367 18.2486 154.915 17.8531 153.842 17.8531V17.6271H158.644C163.616 17.6271 166.384 18.2486 166.384 22.4294C166.384 25.8192 164.407 26.8362 161.751 27.0057C163.39 27.0622 165.141 27.2316 166.44 32.7119C166.892 34.6328 168.474 34.8588 169.096 34.9153V35.2542H169.039Z" fill="white"/>
<path d="M171.412 20.1131C171.412 19.3786 171.977 18.8137 172.712 18.8137C173.39 18.8137 174.011 19.3786 174.011 20.1131C174.011 20.7911 173.446 21.4125 172.712 21.4125C171.977 21.356 171.412 20.7911 171.412 20.1131ZM175.085 35.2543H170.847V34.9153C171.808 34.6329 171.864 34.1809 171.864 32.9379V25.9888C171.864 25.1413 171.638 24.7459 170.621 24.4634V24.1809L174.068 23.4464V32.8814C174.068 34.2939 174.181 34.6329 175.085 34.8588V35.2543Z" fill="white"/>
<path d="M182.711 35.4802C179.66 35.4802 178.305 34.4633 178.305 34.4633V31.0734H178.644C178.813 32.7118 179.435 35.1412 182.711 35.1412C185.367 35.1412 185.028 32.4859 183.163 31.2429L180.621 29.7175C178.192 28.1356 177.683 26.6101 178.644 24.9152C178.644 24.9152 179.378 23.5028 181.92 23.5028C184.802 23.5028 185.988 24.2938 185.988 24.2938V27.3446H185.706C185.536 25.8757 184.858 23.8418 181.92 23.8418C179.547 23.8418 179.378 26.2147 181.525 27.5706L184.067 29.1525C186.327 30.5649 187.062 32.5988 185.819 34.2938C185.875 34.2373 185.028 35.4802 182.711 35.4802Z" fill="white"/>
<path d="M197.797 28.9266C197.797 25.2543 196.158 23.7853 194.972 23.7853C193.559 23.7853 191.921 25.7627 191.921 28.9266H197.797ZM199.548 32.3164C199.265 33.5028 197.91 35.4802 194.972 35.4802C191.864 35.4802 189.604 32.8814 189.604 29.548C189.604 25.8192 191.977 23.4464 195.085 23.4464C197.966 23.4464 200 25.3108 200 29.2091H191.977C192.09 32.5989 193.559 33.9548 195.537 34.1243C197.062 34.2938 198.814 33.3333 199.265 32.1469L199.548 32.3164Z" fill="white"/>
<path d="M21.9209 35.8757H20.6215C17.8531 35.8757 15.1977 35.9887 15.1977 31.1865C15.1977 26.6667 17.7966 26.3277 19.9435 26.3277H21.9209V35.8757ZM16.4407 21.469C16.4407 17.4577 18.7571 17.0622 20.6215 17.0622H21.9209V25.9322H19.9435C18.1356 25.9322 16.4407 25.7062 16.4407 21.469ZM30.9039 26.2712V25.9322H24.0678V19.7741C24.0678 18.0791 24.6328 17.0622 25.8192 17.0622V16.7232H20.8475C17.0057 16.7232 13.8983 17.1752 13.8983 21.5255C13.8983 25.8757 17.7966 26.0452 18.3616 26.0452C16.5537 26.0452 12.5989 26.6667 12.5989 31.2995C12.5989 36.1017 16.0452 36.2712 20.8475 36.2712H25.8192V35.9322C24.6328 35.9322 24.0678 35.0283 24.0678 33.1639V26.3277H30.9039V26.2712Z" fill="#214A7B"/>
<path d="M32.8246 25.9323H30.8472V17.0622H32.1466C34.011 17.0622 36.3274 17.4577 36.3274 21.469C36.3839 25.7063 34.6325 25.9323 32.8246 25.9323ZM40.8471 33.5594C39.3782 27.0622 37.6833 26.3277 35.8189 26.0453C35.7624 26.0453 34.4065 25.9888 34.4065 25.9888H34.463C35.1974 25.9888 38.8697 25.7063 38.8697 21.469C38.8697 17.1187 35.7624 16.6667 31.9206 16.6667H26.9489V17.0057C28.1918 17.0057 28.7003 17.2317 28.7003 18.9266V32.8814C28.7003 35.4803 28.1353 35.7628 26.9489 35.7628V36.1017H32.5986V35.7628C31.4121 35.7628 30.8472 35.3673 30.8472 33.3899V26.1583H33.0506C34.124 26.1583 37.0618 27.1187 37.7398 30.0566C39.1522 36.0453 38.8698 36.1017 41.7511 36.1017H43.559V35.7628C42.9376 35.8193 41.3556 35.7063 40.8471 33.5594Z" fill="#214A7B"/>
</svg>
