<svg width="16" height="16" viewBox="0 0 16 16" fill="none" xmlns="http://www.w3.org/2000/svg">
<path d="M15.1449 0.618541C14.9951 0.543494 14.8187 0.543494 14.669 0.618541L0.856948 7.52456C0.594579 7.65589 0.488343 7.975 0.619637 8.23737C0.694372 8.38672 0.835003 8.49224 0.999291 8.52221L6.48107 9.51933L7.47819 15.0011C7.519 15.2258 7.69891 15.3993 7.92496 15.4319C7.94995 15.4355 7.97516 15.4373 8.00038 15.4373C8.20174 15.4374 8.38582 15.3236 8.47584 15.1435L15.3819 1.33144C15.5133 1.06913 15.4072 0.749959 15.1449 0.618541ZM8.23787 13.2427L7.46014 8.96736C7.41992 8.75146 7.25103 8.58257 7.03516 8.54238L2.75771 7.76253L13.7186 2.28184L8.23787 13.2427Z" fill="white"/>
</svg>
